Coordinates
version=1
nRows=8
nColumns=40
inDegrees=yes

Units are S.I. units (second, meters, Newtons, ...)
If the header above contains a line with 'inDegrees', this indicates whether rotational values are in degrees (yes) or radians (no).

endheader
time	pelvis_tilt	pelvis_list	pelvis_rotation	pelvis_tx	pelvis_ty	pelvis_tz	hip_flexion_r	hip_adduction_r	hip_rotation_r	knee_angle_r	knee_angle_r_beta	ankle_angle_r	subtalar_angle_r	mtp_angle_r	hip_flexion_l	hip_adduction_l	hip_rotation_l	knee_angle_l	knee_angle_l_beta	ankle_angle_l	subtalar_angle_l	mtp_angle_l	lumbar_extension	lumbar_bending	lumbar_rotation	arm_flex_r	arm_add_r	arm_rot_r	elbow_flex_r	pro_sup_r	wrist_flex_r	wrist_dev_r	arm_flex_l	arm_add_l	arm_rot_l	elbow_flex_l	pro_sup_l	wrist_flex_l	wrist_dev_l
      1.23000000	     -3.36461888	      9.91300347	      4.54984918	      0.94847523	      0.89192137	      0.21297661	     34.55389176	    -14.83368994	    -16.97852560	      9.02844692	      0.15757613	      2.38130054	      9.86072972	      0.00000000	    -15.41723197	      7.79098935	    -16.19879809	     10.35211639	      0.18067852	     11.61411014	     15.98065545	      0.00000000	     -0.15590696	     -7.39314529	      3.92399207	     44.43681252	    -15.85689913	     44.43681252	     75.08681973	     44.99649653	      0.00000000	      0.00000000	     44.43681252	    -15.85689913	     44.43681252	     75.08681973	     44.99649653	      0.00000000	      0.00000000
      1.23500000	     -3.33862957	      9.81492873	      4.62749448	      0.95608569	      0.89130240	      0.21332441	     34.41755923	    -14.73634956	    -16.66455317	      9.25664480	      0.16155893	      2.26376247	      9.79919875	      0.00000000	    -15.79882751	      7.52490550	    -16.00198195	     10.61364349	      0.18524302	     11.38586422	     16.02263725	      0.00000000	     -0.11875989	     -7.18383837	      3.81047362	     44.43689186	    -15.85669964	     44.43689186	     75.08678022	     44.99650096	      0.00000000	      0.00000000	     44.43689186	    -15.85669964	     44.43689186	     75.08678022	     44.99650096	      0.00000000	      0.00000000
      1.24000000	     -2.38783603	      8.58582796	      5.20506543	      0.96366268	      0.89299346	      0.21215283	     32.51357191	    -13.73239499	    -17.53519655	      8.64653099	      0.15091043	      1.44475265	      8.72320155	      0.00000000	    -16.82383048	      5.72917318	    -16.20398732	     11.38742114	      0.19874799	     11.18742487	     16.43617440	      0.00000000	     -1.28643943	     -5.53773145	      2.45868573	     44.43898005	    -15.85145280	     44.43898005	     75.08574345	     44.99661622	      0.00000000	      0.00000000	     44.43898005	    -15.85145280	     44.43898005	     75.08574345	     44.99661622	      0.00000000	      0.00000000
      1.24500000	     -2.21014753	      8.40843471	      5.28019477	      0.97136638	      0.89278756	      0.21246548	     32.25345774	    -13.58491822	    -17.36373937	      9.18142605	      0.16024611	      1.25818162	      8.22858002	      0.00000000	    -17.26915323	      5.33101946	    -16.17494682	     11.80091725	      0.20596486	     10.58620207	     16.28469463	      0.00000000	     -1.44453651	     -5.27035430	      2.20894233	     44.43928949	    -15.85067656	     44.43928949	     75.08559066	     44.99663298	      0.00000000	      0.00000000	     44.43928949	    -15.85067656	     44.43928949	     75.08559066	     44.99663298	      0.00000000	      0.00000000
      1.25000000	     -1.92484892	      8.04714629	      5.44487880	      0.97901860	      0.89291398	      0.21256027	     31.76299808	    -13.28302280	    -17.35343035	      9.62237005	      0.16794204	      0.92643153	      7.46884456	      0.00000000	    -17.77512261	      4.70547373	    -16.05674382	     12.26030979	      0.21398277	     10.12960326	     16.07956069	      0.00000000	     -1.74867132	     -4.76094531	      1.74314041	     44.43989502	    -15.84915830	     44.43989502	     75.08529217	     44.99666555	      0.00000000	      0.00000000	     44.43989502	    -15.84915830	     44.43989502	     75.08529217	     44.99666555	      0.00000000	      0.00000000
      1.25500000	     -1.30748915	      7.19329703	      5.82485745	      0.98688018	      0.89394160	      0.21193681	     30.46641703	    -12.51635195	    -17.71405225	      9.40101033	      0.16407858	      0.07193271	      6.59619147	      0.00000000	    -18.55126413	      3.45553535	    -15.96853933	     12.79888941	      0.22338276	      9.61150503	     15.98149703	      0.00000000	     -2.36762531	     -3.73159398	      0.57958897	     44.44199928	    -15.84389110	     44.44199928	     75.08426091	     44.99677643	      0.00000000	      0.00000000	     44.44199928	    -15.84389110	     44.44199928	     75.08426091	     44.99677643	      0.00000000	      0.00000000
      1.26000000	     -1.10921268	      6.95827031	      5.84429601	      0.99477148	      0.89397354	      0.21240985	     30.17725436	    -12.28622183	    -17.60553335	     10.06427853	      0.17565480	     -0.28573618	      6.01395210	      0.00000000	    -18.94823554	      2.99747460	    -15.99207767	     13.28594859	      0.23188355	      8.76476696	     15.67229398	      0.00000000	     -2.50833584	     -3.38010392	      0.33758710	     44.44230223	    -15.84313379	     44.44230223	     75.08411311	     44.99679214	      0.00000000	      0.00000000	     44.44230223	    -15.84313379	     44.44230223	     75.08411311	     44.99679214	      0.00000000	      0.00000000
      1.26500000	     -0.52123535	      6.11669682	      6.16231249	      1.00270328	      0.89502260	      0.21197696	     28.99975387	    -11.48396363	    -17.94033091	     10.01986895	      0.17487970	     -1.18125075	      5.05245546	      0.00000000	    -19.64630108	      1.77991045	    -15.90544443	     13.88170903	      0.24228153	      8.15365344	     15.39219337	      0.00000000	     -3.07638505	     -2.31746351	     -0.68240463	     44.44476549	    -15.83698615	     44.44476549	     75.08291806	     44.99691734	      0.00000000	      0.00000000	     44.44476549	    -15.83698615	     44.44476549	     75.08291806	     44.99691734	      0.00000000	      0.00000000
